<svg xmlns="http://www.w3.org/2000/svg" width="32" height="32"><path fill="#afb1b8" d="M2.434 24.557a.852.852 0 01.188.548.862.862 0 01-.291.692 1.258 1.258 0 01-.845.253H0v-3.474h1.455c.287-.019.572.062.806.231a.793.793 0 01.282.65.8.8 0 01-.169.531.784.784 0 01-.443.271.842.842 0 01.502.297zm-1.743-.524h.622c.141.01.282-.03.396-.115a.41.41 0 00.133-.339.433.433 0 00-.132-.34.6.6 0 00-.407-.117H.691v.911zm1.079 1.332c.05-.044.089-.098.115-.159s.037-.128.032-.194a.44.44 0 00-.151-.357.642.642 0 00-.423-.126H.691v.955h.661a.652.652 0 00.417-.12zM5.409 26.051l-.81-1.358h-.304v1.358h-.696v-3.474h1.318c.332-.023.661.082.918.295a1.113 1.113 0 01.098 1.438 1.07 1.07 0 01-.629.353l.862 1.388h-.757zM4.295 24.22h.57c.396 0 .593-.175.593-.526a.517.517 0 00-.146-.39.618.618 0 00-.448-.141h-.576l.007 1.057zM9.215 25.352H7.827l-.245.699h-.73l1.274-3.435h.789l1.269 3.435h-.73l-.24-.699zm-.186-.526l-.507-1.466-.507 1.466h1.014zM13.98 26.051h-.691l-1.55-2.362v2.362h-.69v-3.474h.69l1.55 2.376v-2.376h.691v3.474zM17.925 25.219a1.501 1.501 0 01-.625.613 2.025 2.025 0 01-.972.219h-1.231v-3.474h1.231c.336-.009.67.065.972.214.265.134.483.345.625.606a2.032 2.032 0 010 1.822zm-.791-.083a1.278 1.278 0 000-1.658 1.196 1.196 0 00-.865-.295h-.48v2.249h.48c.316.02.627-.086.865-.295zM9.648 3.254s8.923 3.382 8.734 8.277v8.278s-8.916-3.384-8.73-8.278l-.003-8.277zM26.331 17.871A12.198 12.198 0 0132 15.773v-2.591a11.643 11.643 0 00-5.669 4.689z"/><path fill="#afb1b8" d="M25.318 18.652A12.14 12.14 0 0132 12.639V5.172S19.293 9.99 19.561 16.96v11.786s.566-.216 1.457-.619c0-.377 0-.757.041-1.139a12.261 12.261 0 014.259-8.336z"/><path fill="#afb1b8" d="M24.11 23.03c.067-.817.216-1.626.445-2.413a11.41 11.41 0 00-2.691 7.119 36.68 36.68 0 002.444-1.293 12.251 12.251 0 01-.198-3.413zM24.615 23.073a11.68 11.68 0 00.157 3.09c3.472-2.086 7.373-5.308 7.222-9.203v-.339a11.372 11.372 0 00-6.605 3.099 11.679 11.679 0 00-.774 3.353z"/></svg>