<!-- Generated by IcoMoon.io -->
<svg version="1.1" xmlns="http://www.w3.org/2000/svg" width="32" height="32" viewBox="0 0 32 32">
<title>Vector-5</title>
<path fill="#2196f3" d="M31.893 12.040c-0.259-0.793-0.944-1.372-1.772-1.493l-7.866-1.144-3.52-7.129c-0.738-1.502-3.2-1.502-3.938 0l-3.52 7.129-7.867 1.144c-0.828 0.121-1.513 0.698-1.774 1.493-0.257 0.795-0.044 1.669 0.556 2.251l5.695 5.55-1.344 7.836c-0.141 0.824 0.198 1.656 0.872 2.148 0.683 0.497 1.575 0.558 2.315 0.167l7.036-3.701 7.036 3.701c0.321 0.169 0.674 0.252 1.023 0.252 0.455 0 0.909-0.14 1.291-0.419 0.676-0.492 1.014-1.324 0.872-2.148l-1.344-7.836 5.694-5.55c0.597-0.584 0.812-1.456 0.555-2.251zM21.752 17.504c-0.516 0.503-0.753 1.232-0.63 1.944l0.786 4.588-4.12-2.165c-0.321-0.169-0.672-0.252-1.023-0.252s-0.701 0.083-1.024 0.252l-4.12 2.165 0.786-4.588c0.123-0.712-0.114-1.438-0.63-1.944l-3.336-3.25 4.607-0.67c0.716-0.103 1.333-0.553 1.654-1.201l2.060-4.173 2.060 4.173c0.321 0.648 0.938 1.098 1.654 1.201l4.607 0.67-3.332 3.25z"></path>
</svg>
